<svg viewBox="0 0 25 25" fill="none" xmlns="http://www.w3.org/2000/svg">
<g clip-path="url(#clip0)">
<path d="M12.1899 24.1699C14.5633 24.1699 16.8834 23.4661 18.8568 22.1476C20.8302 20.829 22.3682 18.9548 23.2765 16.7621C24.1847 14.5694 24.4224 12.1566 23.9594 9.82884C23.4963 7.50107 22.3535 5.36288 20.6752 3.68465C18.997 2.00642 16.8588 0.863527 14.531 0.400504C12.2033 -0.0625187 9.79045 0.175121 7.59774 1.08337C5.40503 1.99162 3.53088 3.5297 2.21231 5.50309C0.893728 7.47648 0.189941 9.79655 0.189941 12.1699C0.189941 15.3525 1.45422 18.4048 3.70466 20.6552C5.9551 22.9056 9.00734 24.1699 12.1899 24.1699V24.1699Z" stroke="#1D1D1B" stroke-width="0.46"/>
<path d="M16.9901 12.6399C16.9901 12.6399 10.0801 13.3599 9.87012 4.8999" stroke="#1D1D1B" stroke-width="0.46"/>
<path d="M16.9901 12.67C16.9901 12.67 10.0801 11.95 9.87012 20.41" stroke="#1D1D1B" stroke-width="0.46"/>
</g>
<defs>
<clipPath id="clip0">
<rect width="24.4" height="24.4" fill="white"/>
</clipPath>
</defs>
</svg>
